<?xml version="1.0" standalone="no"?>
<!DOCTYPE svg PUBLIC "-//W3C//DTD SVG 20010904//EN"
 "http://www.w3.org/TR/2001/REC-SVG-20010904/DTD/svg10.dtd">
<svg version="1.0" xmlns="http://www.w3.org/2000/svg"
 width="200.000000pt" height="200.000000pt" viewBox="0 0 200.000000 200.000000"
 preserveAspectRatio="xMidYMid meet">

<g transform="translate(0.000000,200.000000) scale(0.100000,-0.100000)"
fill="#000000" stroke="none">
<path d="M620 1227 c0 -404 3 -503 15 -550 53 -203 225 -363 428 -397 309 -53
592 168 622 485 14 145 -49 320 -154 424 -189 188 -480 202 -673 31 l-48 -42
0 271 0 271 -95 0 -95 0 0 -493z m677 -128 c122 -59 188 -172 181 -310 -5 -94
-34 -156 -100 -221 -68 -66 -139 -91 -243 -86 -130 7 -228 73 -280 191 -55
120 -34 253 56 351 105 115 246 142 386 75z"/>
<path d="M455 530 c-73 -16 -105 -57 -105 -136 0 -39 5 -51 33 -79 19 -19 46
-37 60 -41 94 -23 186 68 163 161 -16 62 -89 108 -151 95z"/>
</g>
</svg>
