<?xml version="1.0" standalone="no"?>
<!DOCTYPE svg PUBLIC "-//W3C//DTD SVG 20010904//EN"
 "http://www.w3.org/TR/2001/REC-SVG-20010904/DTD/svg10.dtd">
<svg version="1.0" xmlns="http://www.w3.org/2000/svg"
 width="400.000000pt" height="400.000000pt" viewBox="0 0 400.000000 400.000000"
 preserveAspectRatio="xMidYMid meet">

<g transform="translate(0.000000,400.000000) scale(0.100000,-0.100000)"
fill="#000000" stroke="none">
<path d="M680 2495 l0 -35 255 0 255 0 0 35 0 35 -255 0 -255 0 0 -35z"/>
<path d="M1270 2496 l0 -36 360 0 c198 0 360 2 360 5 0 2 -24 17 -52 32 l-53
28 -307 3 -308 3 0 -35z"/>
<path d="M2150 2495 l0 -35 215 0 c127 0 215 4 215 9 0 5 -4 21 -10 35 l-10
26 -205 0 -205 0 0 -35z"/>
<path d="M2900 2504 c-6 -14 -10 -30 -10 -35 0 -5 88 -9 215 -9 l215 0 0 35 0
35 -205 0 -205 0 -10 -26z"/>
<path d="M687 2383 c-4 -3 -7 -19 -7 -35 l0 -28 255 0 255 0 0 35 0 35 -248 0
c-137 0 -252 -3 -255 -7z"/>
<path d="M1277 2383 c-4 -3 -7 -19 -7 -35 l0 -28 406 0 406 0 -7 27 c-3 15
-12 31 -18 35 -15 9 -771 11 -780 1z"/>
<path d="M2148 2367 c-9 -47 -10 -47 243 -47 142 0 239 4 239 9 0 5 -4 21 -10
35 l-10 26 -229 0 -229 0 -4 -23z"/>
<path d="M2850 2365 c-6 -15 -10 -31 -10 -36 0 -5 98 -9 241 -9 l240 0 -3 33
-3 32 -228 3 -227 2 -10 -25z"/>
<path d="M837 2244 c-4 -4 -7 -20 -7 -36 l0 -28 111 0 110 0 -3 33 -3 32 -101
3 c-55 1 -103 0 -107 -4z"/>
<path d="M1420 2215 l0 -35 104 0 c110 0 121 5 109 49 -5 20 -12 21 -109 21
l-104 0 0 -35z"/>
<path d="M1860 2215 l0 -35 109 0 c108 0 109 0 115 25 4 14 4 30 1 35 -4 6
-55 10 -116 10 l-109 0 0 -35z"/>
<path d="M2294 2236 c-3 -8 -4 -23 -2 -33 3 -17 19 -18 200 -21 l197 -2 -14
32 -13 33 -181 3 c-152 2 -182 0 -187 -12z"/>
<path d="M2800 2224 c-6 -14 -10 -30 -10 -35 0 -5 79 -9 189 -9 200 0 202 0
193 47 -4 23 -5 23 -183 23 l-179 0 -10 -26z"/>
<path d="M830 2074 l0 -34 111 0 110 0 -3 33 -3 32 -107 1 -108 1 0 -33z"/>
<path d="M1420 2073 l0 -33 283 0 283 0 29 30 c25 26 26 30 9 30 -10 0 -151 1
-312 2 l-292 3 0 -32z"/>
<path d="M2294 2101 c-2 -2 -4 -17 -4 -32 l0 -28 437 0 c240 0 439 2 443 4 4
2 5 17 2 34 l-4 30 -203 -1 -202 0 -15 -31 -16 -32 -7 28 c-4 15 -12 28 -19
28 -33 4 -408 3 -412 0z"/>
<path d="M830 1934 c0 -19 5 -34 10 -35 6 0 33 0 60 0 28 0 73 0 101 0 l50 1
-3 33 -3 32 -107 1 -108 2 0 -34z"/>
<path d="M1417 1955 c-2 -5 -1 -19 1 -32 l4 -22 297 -3 c163 -2 302 0 309 3
11 4 7 13 -13 35 l-27 29 -284 0 c-173 0 -285 -4 -287 -10z"/>
<path d="M2295 1961 c-8 -7 -6 -61 3 -61 4 -1 52 -1 107 -2 l100 -1 6 32 c4
17 6 32 5 32 -3 5 -217 5 -221 0z"/>
<path d="M2560 1958 c0 -4 4 -18 10 -32 l10 -26 155 0 155 0 11 26 c5 15 7 29
5 32 -8 7 -346 8 -346 0z"/>
<path d="M2959 1958 c-1 -4 -1 -15 -1 -23 0 -8 0 -19 1 -25 1 -10 203 -15 213
-5 2 3 3 18 0 33 l-4 29 -104 -1 c-57 0 -105 -4 -105 -8z"/>
<path d="M830 1790 l0 -30 110 0 110 0 0 30 0 30 -110 0 -110 0 0 -30z"/>
<path d="M1420 1791 l0 -30 101 -3 c107 -3 122 3 112 43 -5 17 -16 19 -109 19
l-104 0 0 -29z"/>
<path d="M1862 1788 l3 -32 110 3 c60 1 111 4 113 6 2 1 0 14 -4 29 l-6 26
-110 0 -109 0 3 -32z"/>
<path d="M2290 1790 l0 -30 109 0 c113 0 123 4 113 43 -4 15 -18 17 -113 17
l-109 0 0 -30z"/>
<path d="M2610 1815 c0 -2 5 -16 12 -30 12 -27 15 -28 143 -25 75 1 79 3 90
38 l6 22 -125 0 c-69 0 -126 -2 -126 -5z"/>
<path d="M2957 1801 c-8 -33 6 -40 88 -41 117 -2 122 -1 129 15 14 38 -2 45
-109 45 -92 0 -103 -2 -108 -19z"/>
<path d="M690 1671 c-4 -8 -5 -22 -3 -32 5 -17 23 -19 243 -21 130 -2 244 -2
253 0 11 2 17 13 17 33 0 16 -3 29 -7 29 -5 0 -118 2 -251 3 -200 2 -245 -1
-252 -12z"/>
<path d="M1318 1682 c-46 -3 -48 -5 -48 -32 l0 -30 368 -2 c202 -2 380 -2 395
0 26 3 58 44 45 57 -6 6 -682 12 -760 7z"/>
<path d="M2198 1682 c-46 -3 -48 -5 -48 -33 l0 -29 179 0 c167 0 179 1 184 19
2 10 2 24 -2 29 -6 11 -219 20 -313 14z"/>
<path d="M2665 1682 c-5 -6 14 -56 25 -62 5 -3 29 -4 55 -2 39 4 48 8 56 29 5
14 8 27 7 28 -5 5 -139 11 -143 7z"/>
<path d="M3068 1682 c-84 -2 -108 -6 -108 -17 0 -7 -3 -20 -6 -29 -5 -14 14
-16 181 -16 l186 0 -3 31 -3 31 -70 1 c-38 1 -118 1 -177 -1z"/>
<path d="M929 1543 c-235 -3 -237 -4 -243 -26 -3 -12 -2 -25 3 -30 6 -6 259
-10 479 -7 29 0 32 3 32 29 0 17 -6 31 -16 35 -9 3 -16 5 -17 4 -1 -2 -108 -4
-238 -5z"/>
<path d="M1608 1542 l-338 -2 0 -30 0 -30 310 0 c287 0 314 1 349 19 50 26 67
46 38 46 -12 0 -174 -1 -359 -3z"/>
<path d="M2318 1542 l-168 -2 0 -30 0 -29 173 -3 c135 -2 175 0 184 10 12 15
3 55 -13 57 -5 0 -84 -1 -176 -3z"/>
<path d="M2716 1543 c-2 -3 0 -18 6 -35 11 -31 21 -28 32 8 5 16 2 23 -13 27
-11 3 -22 3 -25 0z"/>
<path d="M2960 1510 l0 -30 180 0 180 0 0 30 0 30 -180 0 -180 0 0 -30z"/>
</g>
</svg>
