<?xml version="1.0" standalone="no"?>
<!DOCTYPE svg PUBLIC "-//W3C//DTD SVG 20010904//EN"
 "http://www.w3.org/TR/2001/REC-SVG-20010904/DTD/svg10.dtd">
<svg version="1.0" xmlns="http://www.w3.org/2000/svg"
 width="512.000000pt" height="517.000000pt" viewBox="0 0 512.000000 517.000000"
 preserveAspectRatio="xMidYMid meet">

<g transform="translate(0.000000,517.000000) scale(0.100000,-0.100000)"
fill="#000000" stroke="none">
<path d="M1275 4714 c-371 -50 -653 -280 -769 -625 -54 -162 -56 -205 -56
-1499 0 -1294 2 -1337 56 -1499 95 -282 305 -491 587 -585 165 -55 205 -56
1497 -56 1292 0 1332 1 1497 56 283 94 495 306 587 587 55 167 56 207 56 1499
0 1292 -2 1335 -56 1497 -95 283 -304 491 -587 585 -166 55 -203 56 -1512 55
-951 -1 -1221 -4 -1300 -15z m-293 -1931 l3 -428 25 -50 c53 -108 131 -157
256 -163 67 -3 90 0 132 18 60 26 124 91 155 158 21 46 22 59 25 470 l3 422
90 0 89 0 0 -610 0 -610 -90 0 -90 0 0 55 0 55 -43 -33 c-123 -94 -291 -119
-443 -67 -95 33 -199 121 -242 207 -50 97 -52 119 -52 575 l0 428 90 0 89 0 3
-427z m1090 206 l3 -221 40 32 c174 141 443 123 606 -39 180 -181 181 -471 2
-650 -167 -166 -433 -184 -614 -40 l-39 31 0 -56 0 -56 -85 0 -85 0 0 610 0
610 85 0 85 0 2 -221z m1453 -116 c74 -23 129 -58 184 -119 79 -87 121 -196
121 -319 l0 -55 -360 0 c-410 0 -382 7 -334 -88 51 -103 150 -162 269 -162 83
0 145 23 205 77 l50 45 56 -38 c31 -21 58 -42 61 -47 11 -18 -93 -108 -162
-143 -218 -107 -490 -34 -617 165 -90 142 -90 351 0 491 113 175 329 254 527
193z m575 -44 l0 -51 41 37 c55 50 96 65 174 65 l66 0 -3 -77 -3 -78 -45 -3
c-110 -6 -159 -34 -203 -116 -21 -39 -22 -55 -25 -328 l-4 -288 -84 0 -84 0 0
445 0 445 85 0 85 0 0 -51z"/>
<path d="M2285 2727 c-203 -67 -279 -316 -147 -484 78 -98 220 -139 343 -98
72 24 159 110 182 179 53 154 -12 314 -156 388 -52 26 -164 34 -222 15z"/>
<path d="M3286 2725 c-72 -25 -149 -108 -171 -182 l-6 -23 271 0 271 0 -7 23
c-47 152 -209 235 -358 182z"/>
</g>
</svg>
